<svg xmlns="http://www.w3.org/2000/svg" viewBox="0 0 595.28 595.28"><defs><style>.a{fill:#7b73b1;}.b{fill:#2d2e83;}.c{fill:none;stroke:#1d1d1b;stroke-linecap:round;stroke-linejoin:round;stroke-width:7px;}</style></defs><path class="a" d="M491.62,194.18v12.93c0,3.57-1.74,6.47-4,6.47h-12.4c-.17,3.23-.36,6.47-.59,9.7-.36,5.36-3.82,9.7-7.73,9.7H150.09c-6.8,0-12-4.34-11.67-9.7.23-3.23.43-6.47.6-9.7h-26.4c-4.91,0-9-2.89-9-6.47V194.18c0-2.61,2.23-5,5.63-6,44-11.86,83.68-23.71,114.78-35.57,31.43-11.85,54.24-23.7,71.66-35.56.83-.65,2.61-.65,4.95,0,45.08,11.86,84.77,23.71,115.85,35.56,31.4,11.86,54.19,23.71,72.73,35.57C490.7,189.21,491.62,191.57,491.62,194.18ZM460.31,439.89h-340c-9.22,0-16.3,10.74-16.69,24v6.8a7.9,7.9,0,0,0,8,8h372a8.11,8.11,0,0,0,8-8v-6.8C492,450.64,477.6,439.89,460.31,439.89Zm-276.72-194C171,297.64,146.26,349.37,145.92,401.09H125.79c-3.53,0-6.33,4.35-6.2,9.7s.4,10.78.81,16.17H456.63c-.41-5.39-.67-10.78-.81-16.17s-6-9.7-13.19-9.7H404.56c.34-51.72,25.11-103.45,37.67-155.18H398.32c-19,51.73-56.44,103.46-56.95,155.18H283.91c.6-51.72,44.39-103.45,66.59-155.18H298.77c-22.2,51.73-66,103.46-66.59,155.18h-46c.52-51.72,38-103.45,56.95-155.18Z"/><path class="b" d="M485.62,194.18v12.93a6.47,6.47,0,0,1-6.47,6.47h-19.4v9.7a9.7,9.7,0,0,1-9.7,9.7H133.22a9.7,9.7,0,0,1-9.7-9.7v-9.7h-19.4a6.47,6.47,0,0,1-6.46-6.47V194.18a6.46,6.46,0,0,1,4-6l187.51-71.13a6.53,6.53,0,0,1,4.95,0l187.51,71.13A6.47,6.47,0,0,1,485.62,194.18Zm-24,245.71h-340a24,24,0,0,0-24,24v6.8a8,8,0,0,0,8,8h372a8,8,0,0,0,8-8v-6.8A24,24,0,0,0,461.62,439.89Zm-299.3-194V401.09h-29.1a9.7,9.7,0,0,0-9.7,9.7V427H459.75V410.79a9.7,9.7,0,0,0-9.7-9.7H421V245.91H369.23V401.09H317.5V245.91H265.77V401.09H214.05V245.91Z"/><path class="c" d="M475.62,194.18v12.93a6.47,6.47,0,0,1-6.47,6.47h-19.4v9.7a9.7,9.7,0,0,1-9.7,9.7H123.22a9.7,9.7,0,0,1-9.7-9.7v-9.7H94.12a6.47,6.47,0,0,1-6.46-6.47V194.18a6.46,6.46,0,0,1,4-6l187.51-71.13a6.53,6.53,0,0,1,4.95,0l187.51,71.13A6.47,6.47,0,0,1,475.62,194.18Zm-24,245.71h-340a24,24,0,0,0-24,24v6.8a8,8,0,0,0,8,8h372a8,8,0,0,0,8-8v-6.8A24,24,0,0,0,451.62,439.89Zm-299.3-194V401.09h-29.1a9.7,9.7,0,0,0-9.7,9.7V427H449.75V410.79a9.7,9.7,0,0,0-9.7-9.7H411V245.91H359.23V401.09H307.5V245.91H255.77V401.09H204V245.91Z"/></svg>